<svg width="439" height="325" viewBox="0 0 439 325" fill="none" xmlns="http://www.w3.org/2000/svg">
<path d="M422.18 278.957C420.976 278.957 419.773 278.646 418.699 278.026L406.963 271.25C406.282 270.857 405.875 270.153 405.875 269.367C405.875 268.582 406.282 267.878 406.963 267.485L418.699 260.709C420.845 259.47 423.514 259.469 425.661 260.709L437.398 267.485C438.079 267.878 438.486 268.582 438.486 269.367C438.486 270.153 438.079 270.857 437.398 271.25L425.662 278.026C424.588 278.646 423.384 278.957 422.18 278.957ZM422.18 261.64C421.297 261.64 420.415 261.867 419.628 262.321L407.892 269.097C407.756 269.176 407.736 269.301 407.736 269.367C407.736 269.434 407.757 269.559 407.892 269.639L419.629 276.415H419.63C421.202 277.323 423.157 277.323 424.732 276.415L436.468 269.639C436.604 269.56 436.624 269.435 436.624 269.367C436.624 269.301 436.603 269.176 436.468 269.097L424.731 262.321C423.943 261.866 423.061 261.64 422.18 261.64Z" fill="url(#paint0_linear_20_2)"/>
<path d="M388.612 240.506C386.656 240.506 384.701 240.003 382.957 238.995L362.759 227.333C361.797 226.778 361.223 225.785 361.223 224.675C361.223 223.565 361.797 222.571 362.759 222.017L382.956 210.356C386.442 208.341 390.778 208.34 394.267 210.356L414.466 222.017C415.427 222.572 416.001 223.565 416.001 224.674C416.001 225.784 415.428 226.778 414.467 227.334L394.268 238.995C392.524 240.002 390.567 240.506 388.612 240.506ZM383.887 237.384C386.803 239.066 390.422 239.066 393.338 237.384L413.536 225.723C414.081 225.408 414.139 224.885 414.139 224.675C414.139 224.465 414.08 223.944 413.536 223.628L393.337 211.967C390.421 210.285 386.802 210.285 383.886 211.967L363.689 223.628C363.144 223.943 363.084 224.465 363.084 224.675C363.084 224.885 363.144 225.407 363.689 225.722L383.887 237.384Z" fill="url(#paint1_linear_20_2)"/>
<path d="M27.39 258.858C25.434 258.858 23.479 258.355 21.735 257.347L1.535 245.686C0.573004 245.13 0 244.136 0 243.026C0 241.917 0.574004 240.923 1.535 240.369L21.733 228.708C25.22 226.692 29.556 226.692 33.044 228.708L53.242 240.37C54.204 240.925 54.778 241.918 54.778 243.028C54.778 244.138 54.204 245.132 53.242 245.686L33.045 257.347C31.302 258.354 29.345 258.858 27.39 258.858ZM27.389 229.058C25.755 229.058 24.121 229.479 22.663 230.32L2.465 241.981C1.92 242.296 1.861 242.818 1.861 243.028C1.861 243.238 1.92 243.76 2.466 244.076L22.664 255.737C25.58 257.419 29.199 257.419 32.115 255.737L52.312 244.076C52.858 243.761 52.916 243.239 52.916 243.029C52.916 242.819 52.857 242.298 52.312 241.982L32.114 230.32C30.656 229.478 29.022 229.058 27.389 229.058Z" fill="url(#paint2_linear_20_2)"/>
<path opacity="0.6" d="M231.935 309.732L87.5049 226.345C85.3999 225.13 85.6639 223.007 88.0949 221.603L180.792 168.084C183.223 166.681 186.9 166.528 189.005 167.744L333.435 251.132C335.54 252.348 335.276 254.471 332.845 255.874L240.148 309.392C237.718 310.796 234.04 310.948 231.935 309.732Z" fill="#020230"/>
<path d="M235.244 324.787C233.555 324.787 231.936 324.436 230.699 323.722H230.7L65.8619 228.553C64.5149 227.777 63.7739 226.656 63.7739 225.398C63.7739 223.953 64.7799 222.543 66.5339 221.53L178.898 155.698C181.98 153.918 186.507 153.747 189.208 155.306L354.045 250.476C355.392 251.252 356.133 252.374 356.133 253.631C356.133 255.076 355.127 256.485 353.372 257.498L241.009 323.33C239.338 324.295 237.243 324.787 235.244 324.787ZM184.685 156.109C182.997 156.109 181.203 156.516 179.834 157.305L67.4709 223.137C66.3199 223.802 65.6359 224.646 65.6359 225.396C65.6359 226.121 66.2649 226.636 66.7919 226.941L231.63 322.11H231.631C233.735 323.327 237.603 323.149 240.072 321.721L352.436 255.889C353.587 255.224 354.271 254.381 354.271 253.63C354.271 252.906 353.642 252.391 353.115 252.086L188.278 156.916C187.338 156.375 186.046 156.109 184.685 156.109Z" fill="url(#paint3_linear_20_2)"/>
<path d="M371.804 111.333L227.943 28.274C226.954 27.703 225.922 27.585 225.007 27.852L225.006 27.853C225.002 27.854 224.997 27.856 224.993 27.857L222.329 28.785L223.267 29.007C222.891 29.452 222.588 30.004 222.389 30.652L189.855 136.283C189.049 138.902 190.23 142.085 192.492 143.391L336.354 226.45C336.704 226.652 337.059 226.791 337.412 226.882L337.056 227.658L339.601 226.764L339.595 226.762C340.637 226.347 341.496 225.416 341.91 224.071L374.444 118.44C375.247 115.821 374.066 112.639 371.804 111.333Z" fill="url(#paint4_radial_20_2)"/>
<path d="M331.203 230.394L331.254 230.455L189.156 148.415C187.066 147.208 183.414 147.36 181.001 148.753L89.1919 201.759L86.1309 200.59L86.9909 204.885L86.9949 204.883C87.1089 205.529 87.5609 206.134 88.3729 206.603L231.785 289.402C233.875 290.609 237.527 290.457 239.94 289.064L331.983 235.923C333.119 235.267 333.772 234.454 333.934 233.65L333.939 233.656L334.817 229.476L331.203 230.394Z" fill="url(#paint5_radial_20_2)"/>
<path d="M231.935 285.622L87.5049 202.235C85.3999 201.02 85.6639 198.897 88.0949 197.493L180.792 143.975C183.223 142.572 186.9 142.419 189.005 143.635L333.435 227.022C335.54 228.237 335.276 230.361 332.845 231.764L240.148 285.282C237.718 286.685 234.04 286.838 231.935 285.622Z" fill="url(#paint6_radial_20_2)"/>
<path d="M332.845 230.639L240.148 284.157C237.717 285.561 234.04 285.713 231.935 284.498L87.5049 201.111C86.7879 200.697 86.3669 200.174 86.1919 199.613C85.9129 200.581 86.3209 201.552 87.5049 202.235L231.936 285.622C234.041 286.837 237.718 286.685 240.149 285.282L332.846 231.764C334.449 230.839 335.088 229.604 334.749 228.52C334.531 229.273 333.909 230.025 332.845 230.639Z" fill="white"/>
<g opacity="0.4">
<path d="M156.396 188.703L151.52 185.888C151.128 185.662 151.178 185.267 151.63 185.006L157.385 181.683C157.837 181.422 158.521 181.394 158.913 181.62L163.789 184.435C164.181 184.661 164.131 185.056 163.679 185.317L157.923 188.64C157.472 188.901 156.788 188.929 156.396 188.703Z" fill="#06033E"/>
<path d="M163.926 193.051L159.05 190.236C158.658 190.01 158.708 189.615 159.16 189.354L164.916 186.031C165.368 185.77 166.052 185.742 166.443 185.968L171.319 188.783C171.711 189.009 171.661 189.404 171.209 189.665L165.454 192.988C165.002 193.248 164.318 193.277 163.926 193.051Z" fill="#06033E"/>
<path d="M171.457 197.398L166.581 194.583C166.19 194.357 166.239 193.962 166.691 193.701L172.447 190.378C172.899 190.117 173.583 190.089 173.974 190.315L178.85 193.13C179.241 193.356 179.192 193.751 178.74 194.012L172.984 197.335C172.532 197.596 171.848 197.624 171.457 197.398Z" fill="#06033E"/>
<path d="M181.872 193.808L176.996 190.993C176.604 190.767 176.654 190.372 177.106 190.111L181.937 187.322C182.389 187.061 183.073 187.033 183.464 187.259L188.34 190.074C188.731 190.3 188.682 190.695 188.23 190.956L183.399 193.745C182.947 194.006 182.263 194.034 181.872 193.808Z" fill="#06033E"/>
<path d="M189.402 198.156L184.526 195.341C184.134 195.115 184.184 194.72 184.636 194.459L189.468 191.67C189.92 191.409 190.604 191.381 190.995 191.607L195.871 194.422C196.263 194.648 196.213 195.043 195.761 195.304L190.929 198.093C190.477 198.353 189.793 198.382 189.402 198.156Z" fill="#06033E"/>
<path d="M196.932 202.503L192.056 199.688C191.664 199.462 191.714 199.067 192.166 198.806L196.998 196.017C197.45 195.756 198.134 195.728 198.525 195.954L203.401 198.769C203.793 198.995 203.743 199.39 203.291 199.651L198.459 202.44C198.008 202.701 197.324 202.729 196.932 202.503Z" fill="#06033E"/>
<path d="M204.462 206.851L199.586 204.036C199.194 203.81 199.244 203.415 199.696 203.154L204.527 200.365C204.979 200.104 205.663 200.076 206.054 200.302L210.93 203.117C211.322 203.343 211.272 203.738 210.82 203.999L205.989 206.788C205.538 207.048 204.854 207.077 204.462 206.851Z" fill="#06033E"/>
<path d="M211.993 211.198L207.117 208.383C206.725 208.157 206.775 207.762 207.227 207.501L212.059 204.712C212.511 204.451 213.195 204.423 213.586 204.649L218.462 207.464C218.853 207.69 218.804 208.085 218.352 208.346L213.521 211.135C213.068 211.396 212.384 211.424 211.993 211.198Z" fill="#06033E"/>
<path d="M219.523 215.546L214.647 212.731C214.255 212.505 214.305 212.11 214.757 211.849L219.588 209.06C220.04 208.799 220.724 208.771 221.115 208.997L225.991 211.812C226.382 212.038 226.333 212.433 225.881 212.694L221.05 215.483C220.598 215.744 219.914 215.772 219.523 215.546Z" fill="#06033E"/>
<path d="M227.053 219.894L222.177 217.079C221.785 216.853 221.835 216.458 222.287 216.197L227.118 213.408C227.57 213.147 228.254 213.119 228.645 213.345L233.521 216.16C233.912 216.386 233.863 216.781 233.411 217.042L228.579 219.831C228.129 220.091 227.445 220.12 227.053 219.894Z" fill="#06033E"/>
<path d="M234.583 224.241L229.707 221.426C229.316 221.2 229.365 220.805 229.817 220.544L234.649 217.755C235.101 217.494 235.785 217.466 236.176 217.692L241.052 220.507C241.444 220.733 241.394 221.128 240.942 221.389L236.11 224.178C235.659 224.439 234.975 224.467 234.583 224.241Z" fill="#06033E"/>
<path d="M242.114 228.589L237.238 225.774C236.847 225.548 236.896 225.153 237.348 224.892L242.18 222.103C242.632 221.842 243.316 221.814 243.707 222.04L248.583 224.855C248.975 225.081 248.925 225.476 248.473 225.737L243.642 228.526C243.189 228.787 242.505 228.815 242.114 228.589Z" fill="#06033E"/>
<path d="M249.644 232.936L244.768 230.121C244.376 229.895 244.426 229.5 244.878 229.239L249.709 226.45C250.161 226.189 250.845 226.161 251.236 226.387L256.112 229.202C256.503 229.428 256.454 229.823 256.002 230.084L251.17 232.874C250.719 233.134 250.035 233.162 249.644 232.936Z" fill="#06033E"/>
<path d="M192.967 191.75L188.091 188.935C187.699 188.709 187.749 188.314 188.201 188.053L193.032 185.264C193.484 185.003 194.168 184.975 194.56 185.201L199.436 188.016C199.827 188.242 199.778 188.637 199.326 188.898L194.495 191.687C194.042 191.947 193.358 191.976 192.967 191.75Z" fill="#06033E"/>
<path d="M185.324 187.337L180.448 184.522C180.057 184.296 180.106 183.901 180.558 183.64L185.389 180.85C185.841 180.589 186.525 180.561 186.917 180.787L191.793 183.602C192.185 183.828 192.135 184.223 191.683 184.484L186.852 187.273C186.4 187.535 185.716 187.563 185.324 187.337Z" fill="#06033E"/>
<path d="M177.669 182.917L167.167 176.854C166.776 176.628 166.825 176.233 167.277 175.972L172.108 173.183C172.56 172.922 173.244 172.894 173.635 173.12L184.137 179.183C184.529 179.409 184.479 179.804 184.027 180.065L179.196 182.854C178.745 183.115 178.061 183.143 177.669 182.917Z" fill="#06033E"/>
<path d="M183.02 177.542L174.497 172.621C174.105 172.395 174.155 172 174.607 171.739L179.438 168.949C179.89 168.688 180.574 168.66 180.965 168.886L189.488 173.807C189.879 174.033 189.83 174.428 189.378 174.689L184.547 177.478C184.095 177.74 183.411 177.769 183.02 177.542Z" fill="#06033E"/>
<path d="M200.497 196.097L195.621 193.282C195.229 193.056 195.279 192.661 195.731 192.4L200.562 189.61C201.014 189.349 201.698 189.321 202.089 189.547L206.965 192.362C207.356 192.588 207.307 192.983 206.855 193.244L202.024 196.033C201.573 196.295 200.889 196.323 200.497 196.097Z" fill="#06033E"/>
<path d="M208.027 200.445L203.151 197.63C202.76 197.404 202.809 197.009 203.261 196.748L208.092 193.958C208.544 193.697 209.228 193.669 209.619 193.895L214.495 196.71C214.887 196.936 214.837 197.331 214.385 197.592L209.553 200.381C209.103 200.643 208.419 200.671 208.027 200.445Z" fill="#06033E"/>
<path d="M215.558 204.792L210.682 201.977C210.29 201.751 210.34 201.356 210.792 201.095L215.624 198.306C216.076 198.045 216.76 198.017 217.151 198.243L222.027 201.058C222.419 201.284 222.369 201.679 221.917 201.94L217.085 204.729C216.633 204.99 215.949 205.018 215.558 204.792Z" fill="#06033E"/>
<path d="M223.088 209.14L218.212 206.325C217.82 206.099 217.87 205.704 218.322 205.443L223.154 202.654C223.606 202.393 224.29 202.365 224.681 202.591L229.557 205.406C229.948 205.632 229.899 206.027 229.447 206.288L224.616 209.077C224.163 209.338 223.479 209.366 223.088 209.14Z" fill="#06033E"/>
<path d="M230.618 213.488L225.742 210.673C225.351 210.447 225.4 210.052 225.852 209.791L230.683 207.002C231.135 206.741 231.819 206.713 232.21 206.939L237.086 209.754C237.477 209.98 237.428 210.375 236.976 210.636L232.144 213.425C231.694 213.685 231.01 213.714 230.618 213.488Z" fill="#06033E"/>
<path d="M238.148 217.835L233.272 215.02C232.88 214.794 232.93 214.399 233.382 214.138L238.214 211.349C238.666 211.088 239.35 211.06 239.741 211.286L244.617 214.101C245.009 214.327 244.959 214.722 244.507 214.983L239.675 217.772C239.224 218.033 238.54 218.061 238.148 217.835Z" fill="#06033E"/>
<path d="M245.679 222.183L240.803 219.368C240.411 219.142 240.461 218.747 240.913 218.486L245.745 215.697C246.197 215.436 246.881 215.408 247.272 215.634L252.148 218.449C252.54 218.675 252.49 219.07 252.038 219.331L247.207 222.12C246.754 222.38 246.07 222.409 245.679 222.183Z" fill="#06033E"/>
<path d="M253.209 226.53L248.333 223.715C247.941 223.489 247.991 223.094 248.443 222.833L253.275 220.044C253.727 219.783 254.411 219.755 254.802 219.981L259.678 222.796C260.07 223.022 260.02 223.417 259.568 223.678L254.737 226.467C254.285 226.728 253.601 226.757 253.209 226.53Z" fill="#06033E"/>
<path d="M260.739 230.878L255.863 228.063C255.472 227.837 255.521 227.442 255.973 227.181L260.804 224.392C261.256 224.131 261.94 224.103 262.332 224.329L267.208 227.144C267.599 227.37 267.55 227.765 267.098 228.026L262.267 230.815C261.815 231.076 261.131 231.104 260.739 230.878Z" fill="#06033E"/>
<path d="M274.126 238.607L263.487 232.464C263.096 232.238 263.145 231.843 263.597 231.582L268.429 228.792C268.881 228.531 269.565 228.503 269.956 228.729L280.595 234.872C280.987 235.098 280.937 235.493 280.485 235.754L275.654 238.543C275.202 238.805 274.518 238.833 274.126 238.607Z" fill="#06033E"/>
<path d="M288.787 230.143L279.807 224.958C279.415 224.732 279.465 224.337 279.917 224.076L284.749 221.287C285.201 221.026 285.885 220.998 286.276 221.224L295.256 226.409C295.647 226.635 295.598 227.03 295.146 227.291L290.314 230.08C289.862 230.341 289.178 230.369 288.787 230.143Z" fill="#06033E"/>
<path d="M213.684 195.247L208.808 192.432C208.416 192.206 208.466 191.811 208.918 191.55L213.749 188.761C214.201 188.5 214.885 188.472 215.277 188.698L220.153 191.513C220.545 191.739 220.495 192.134 220.043 192.395L215.212 195.184C214.76 195.444 214.076 195.473 213.684 195.247Z" fill="#06033E"/>
<path d="M205.967 190.791L201.091 187.976C200.699 187.75 200.749 187.355 201.201 187.094L206.033 184.305C206.485 184.044 207.169 184.016 207.56 184.242L212.436 187.057C212.828 187.283 212.778 187.678 212.326 187.939L207.494 190.728C207.042 190.988 206.358 191.017 205.967 190.791Z" fill="#06033E"/>
<path d="M198.249 186.335L193.373 183.52C192.981 183.294 193.031 182.899 193.483 182.638L198.315 179.849C198.767 179.588 199.451 179.56 199.842 179.786L204.718 182.601C205.11 182.827 205.06 183.222 204.608 183.483L199.777 186.272C199.324 186.533 198.641 186.561 198.249 186.335Z" fill="#06033E"/>
<path d="M190.532 181.879L185.656 179.064C185.265 178.838 185.314 178.443 185.766 178.182L190.597 175.393C191.049 175.132 191.733 175.104 192.124 175.33L197 178.145C197.391 178.371 197.342 178.766 196.89 179.027L192.058 181.816C191.607 182.077 190.923 182.105 190.532 181.879Z" fill="#06033E"/>
<path d="M221.215 199.594L216.339 196.779C215.947 196.553 215.997 196.158 216.449 195.897L221.281 193.107C221.733 192.846 222.417 192.818 222.808 193.044L227.684 195.859C228.076 196.085 228.026 196.48 227.574 196.741L222.742 199.531C222.29 199.792 221.606 199.82 221.215 199.594Z" fill="#06033E"/>
<path d="M228.745 203.942L223.869 201.127C223.477 200.901 223.527 200.506 223.979 200.245L228.81 197.456C229.262 197.195 229.946 197.167 230.337 197.393L235.213 200.208C235.605 200.434 235.555 200.829 235.103 201.09L230.271 203.88C229.82 204.14 229.136 204.168 228.745 203.942Z" fill="#06033E"/>
<path d="M236.275 208.289L231.399 205.474C231.007 205.248 231.057 204.853 231.509 204.592L236.34 201.802C236.792 201.541 237.476 201.513 237.868 201.739L242.744 204.554C243.135 204.78 243.086 205.175 242.634 205.436L237.803 208.225C237.35 208.487 236.667 208.515 236.275 208.289Z" fill="#06033E"/>
<path d="M243.805 212.637L238.929 209.822C238.537 209.596 238.587 209.201 239.039 208.94L243.87 206.15C244.322 205.889 245.006 205.861 245.397 206.087L250.273 208.902C250.665 209.128 250.615 209.523 250.163 209.784L245.332 212.574C244.881 212.835 244.197 212.863 243.805 212.637Z" fill="#06033E"/>
<path d="M251.336 216.985L246.46 214.17C246.068 213.944 246.118 213.549 246.57 213.288L251.401 210.499C251.853 210.238 252.537 210.21 252.928 210.436L257.804 213.251C258.196 213.477 258.146 213.872 257.694 214.133L252.862 216.923C252.411 217.182 251.727 217.211 251.336 216.985Z" fill="#06033E"/>
<path d="M258.866 221.332L253.99 218.517C253.598 218.291 253.648 217.896 254.1 217.635L258.932 214.845C259.384 214.584 260.068 214.556 260.459 214.782L265.335 217.597C265.727 217.823 265.677 218.218 265.225 218.479L260.393 221.268C259.941 221.53 259.257 221.558 258.866 221.332Z" fill="#06033E"/>
<path d="M266.396 225.68L261.52 222.865C261.129 222.639 261.178 222.244 261.63 221.983L266.462 219.194C266.914 218.933 267.598 218.905 267.989 219.131L272.865 221.946C273.256 222.172 273.207 222.567 272.755 222.828L267.924 225.617C267.472 225.878 266.788 225.906 266.396 225.68Z" fill="#06033E"/>
<path d="M273.927 230.027L269.051 227.212C268.66 226.986 268.709 226.591 269.161 226.33L273.993 223.541C274.445 223.28 275.129 223.252 275.52 223.478L280.396 226.293C280.787 226.519 280.738 226.914 280.286 227.175L275.454 229.964C275.002 230.225 274.318 230.253 273.927 230.027Z" fill="#06033E"/>
<path d="M281.457 234.375L276.581 231.56C276.189 231.334 276.239 230.939 276.691 230.678L281.522 227.889C281.974 227.628 282.658 227.6 283.049 227.826L287.925 230.641C288.317 230.867 288.268 231.262 287.815 231.523L282.983 234.313C282.532 234.573 281.848 234.601 281.457 234.375Z" fill="#06033E"/>
<path d="M209.719 184.493L204.843 181.678C204.451 181.452 204.501 181.057 204.953 180.796L209.784 178.007C210.236 177.746 210.92 177.718 211.312 177.944L216.188 180.759C216.58 180.985 216.53 181.38 216.078 181.641L211.247 184.43C210.794 184.691 210.111 184.719 209.719 184.493Z" fill="#06033E"/>
<path d="M202.226 180.167L197.35 177.352C196.959 177.126 197.008 176.731 197.46 176.47L202.291 173.68C202.743 173.419 203.427 173.391 203.819 173.617L208.695 176.432C209.087 176.658 209.037 177.053 208.585 177.314L203.754 180.103C203.302 180.365 202.618 180.393 202.226 180.167Z" fill="#06033E"/>
<path d="M194.734 175.841L189.858 173.026C189.467 172.8 189.516 172.405 189.968 172.144L194.799 169.354C195.251 169.093 195.935 169.065 196.326 169.291L201.202 172.106C201.593 172.332 201.544 172.727 201.092 172.988L196.261 175.778C195.809 176.039 195.125 176.067 194.734 175.841Z" fill="#06033E"/>
<path d="M187.241 171.515L182.365 168.7C181.974 168.474 182.023 168.079 182.475 167.818L187.306 165.029C187.758 164.768 188.442 164.74 188.833 164.966L193.709 167.781C194.101 168.007 194.052 168.402 193.599 168.663L188.768 171.452C188.316 171.713 187.632 171.741 187.241 171.515Z" fill="#06033E"/>
<path d="M194.946 167.067L190.07 164.252C189.678 164.026 189.728 163.631 190.18 163.37L191.777 162.448C192.229 162.187 192.913 162.159 193.304 162.385L198.18 165.2C198.572 165.426 198.522 165.821 198.07 166.082L196.473 167.004C196.021 167.264 195.337 167.293 194.946 167.067Z" fill="#06033E"/>
<path d="M204.724 172.712L199.848 169.897C199.457 169.671 199.506 169.276 199.958 169.015L201.555 168.093C202.007 167.832 202.691 167.804 203.082 168.03L207.958 170.845C208.35 171.071 208.3 171.466 207.848 171.727L206.251 172.649C205.799 172.91 205.115 172.938 204.724 172.712Z" fill="#06033E"/>
<path d="M212.185 177.02L207.309 174.205C206.917 173.979 206.967 173.584 207.419 173.323L209.016 172.401C209.468 172.14 210.152 172.112 210.544 172.338L215.42 175.153C215.811 175.379 215.762 175.774 215.31 176.035L213.713 176.957C213.261 177.218 212.577 177.246 212.185 177.02Z" fill="#06033E"/>
<path d="M219.647 181.328L214.771 178.513C214.38 178.287 214.429 177.892 214.881 177.631L216.478 176.709C216.93 176.448 217.614 176.42 218.005 176.646L222.881 179.461C223.273 179.687 223.223 180.082 222.771 180.343L221.174 181.265C220.722 181.526 220.038 181.554 219.647 181.328Z" fill="#06033E"/>
<path d="M227.108 185.636L222.232 182.821C221.841 182.595 221.89 182.2 222.342 181.939L223.939 181.017C224.391 180.756 225.075 180.728 225.466 180.954L230.342 183.769C230.734 183.995 230.684 184.39 230.232 184.651L228.635 185.573C228.184 185.834 227.5 185.862 227.108 185.636Z" fill="#06033E"/>
<path d="M268.765 209.687L263.889 206.872C263.498 206.646 263.547 206.251 263.999 205.99L265.596 205.068C266.048 204.807 266.732 204.779 267.123 205.005L271.999 207.82C272.391 208.046 272.341 208.441 271.889 208.702L270.292 209.624C269.841 209.884 269.157 209.913 268.765 209.687Z" fill="#06033E"/>
<path d="M276.227 213.994L271.351 211.179C270.959 210.953 271.009 210.558 271.461 210.297L273.058 209.375C273.51 209.114 274.194 209.086 274.586 209.312L279.462 212.127C279.854 212.353 279.804 212.748 279.352 213.009L277.755 213.931C277.302 214.192 276.618 214.221 276.227 213.994Z" fill="#06033E"/>
<path d="M283.689 218.302L278.813 215.487C278.421 215.261 278.471 214.866 278.923 214.605L280.52 213.683C280.972 213.422 281.656 213.394 282.047 213.62L286.923 216.435C287.314 216.661 287.265 217.056 286.813 217.317L285.216 218.239C284.764 218.5 284.08 218.529 283.689 218.302Z" fill="#06033E"/>
<path d="M291.15 222.61L286.274 219.795C285.882 219.569 285.932 219.174 286.384 218.913L287.981 217.991C288.433 217.73 289.117 217.702 289.508 217.928L294.384 220.743C294.776 220.969 294.726 221.364 294.274 221.625L292.677 222.547C292.225 222.808 291.542 222.836 291.15 222.61Z" fill="#06033E"/>
<path d="M217.249 188.841L212.373 186.026C211.982 185.8 212.031 185.405 212.483 185.144L217.314 182.355C217.766 182.094 218.45 182.066 218.841 182.292L223.717 185.107C224.108 185.333 224.059 185.728 223.607 185.989L218.776 188.778C218.325 189.038 217.641 189.067 217.249 188.841Z" fill="#06033E"/>
<path d="M224.78 193.188L219.904 190.373C219.512 190.147 219.562 189.752 220.014 189.491L224.845 186.702C225.297 186.441 225.981 186.413 226.372 186.639L231.248 189.454C231.64 189.68 231.59 190.075 231.138 190.336L226.307 193.125C225.855 193.386 225.171 193.414 224.78 193.188Z" fill="#06033E"/>
<path d="M232.31 197.536L227.434 194.721C227.042 194.495 227.092 194.1 227.544 193.839L232.375 191.05C232.827 190.789 233.511 190.761 233.902 190.987L238.778 193.802C239.17 194.028 239.12 194.423 238.668 194.684L233.836 197.474C233.385 197.734 232.702 197.762 232.31 197.536Z" fill="#06033E"/>
<path d="M239.84 201.884L234.964 199.069C234.572 198.843 234.622 198.448 235.074 198.187L239.906 195.398C240.358 195.137 241.042 195.109 241.433 195.335L246.309 198.15C246.701 198.376 246.651 198.771 246.199 199.032L241.368 201.821C240.916 202.081 240.232 202.11 239.84 201.884Z" fill="#06033E"/>
<path d="M247.371 206.231L242.495 203.416C242.104 203.19 242.153 202.795 242.605 202.534L247.437 199.745C247.889 199.484 248.573 199.456 248.964 199.682L253.84 202.497C254.231 202.723 254.182 203.118 253.73 203.379L248.899 206.169C248.446 206.429 247.762 206.457 247.371 206.231Z" fill="#06033E"/>
<path d="M254.901 210.579L250.025 207.764C249.633 207.538 249.683 207.143 250.135 206.882L254.967 204.093C255.419 203.832 256.103 203.804 256.494 204.03L261.37 206.845C261.761 207.071 261.712 207.466 261.26 207.727L256.428 210.517C255.976 210.776 255.292 210.805 254.901 210.579Z" fill="#06033E"/>
<path d="M262.431 214.926L257.555 212.111C257.163 211.885 257.213 211.49 257.665 211.229L262.497 208.44C262.949 208.179 263.633 208.151 264.024 208.377L268.9 211.192C269.292 211.418 269.242 211.813 268.79 212.074L263.958 214.863C263.506 215.124 262.823 215.152 262.431 214.926Z" fill="#06033E"/>
<path d="M269.961 219.274L265.085 216.459C264.693 216.233 264.743 215.838 265.195 215.577L270.026 212.788C270.478 212.527 271.162 212.499 271.553 212.725L276.429 215.54C276.821 215.766 276.771 216.161 276.319 216.422L271.488 219.212C271.037 219.472 270.353 219.5 269.961 219.274Z" fill="#06033E"/>
<path d="M277.492 223.621L272.616 220.806C272.225 220.58 272.274 220.185 272.726 219.924L277.558 217.135C278.01 216.874 278.694 216.846 279.085 217.072L283.961 219.887C284.353 220.113 284.303 220.508 283.851 220.769L279.02 223.558C278.567 223.819 277.883 223.848 277.492 223.621Z" fill="#06033E"/>
<path d="M174.198 189.377L159.837 181.086C159.446 180.86 159.495 180.465 159.947 180.204L164.778 177.415C165.23 177.154 165.914 177.126 166.306 177.352L180.667 185.643C181.058 185.869 181.009 186.264 180.557 186.525L175.725 189.314C175.273 189.575 174.589 189.604 174.198 189.377Z" fill="#06033E"/>
<path d="M266.709 242.789L252.348 234.498C251.957 234.272 252.006 233.877 252.458 233.616L257.29 230.827C257.742 230.566 258.426 230.538 258.817 230.764L273.178 239.055C273.57 239.281 273.52 239.676 273.068 239.937L268.236 242.726C267.784 242.986 267.1 243.015 266.709 242.789Z" fill="#06033E"/>
<path d="M236.594 235.005L231.718 232.19C231.326 231.964 231.376 231.569 231.828 231.308L237.584 227.985C238.036 227.724 238.72 227.696 239.111 227.922L243.987 230.737C244.378 230.963 244.329 231.358 243.877 231.619L238.121 234.942C237.67 235.203 236.986 235.232 236.594 235.005Z" fill="#06033E"/>
<path d="M181.909 203.433L174.111 198.931C173.72 198.705 173.769 198.31 174.221 198.049L179.977 194.726C180.429 194.465 181.113 194.437 181.504 194.663L189.302 199.165C189.694 199.391 189.644 199.786 189.192 200.047L183.436 203.37C182.985 203.631 182.301 203.659 181.909 203.433Z" fill="#06033E"/>
<path d="M229.339 230.817L221.541 226.315C221.149 226.089 221.199 225.694 221.651 225.433L227.407 222.11C227.859 221.849 228.543 221.821 228.934 222.047L236.732 226.549C237.123 226.775 237.074 227.17 236.622 227.431L230.867 230.754C230.414 231.014 229.73 231.043 229.339 230.817Z" fill="#06033E"/>
<path d="M192.774 209.706L184.976 205.204C184.585 204.978 184.634 204.583 185.086 204.322L190.842 200.999C191.294 200.738 191.978 200.71 192.369 200.936L200.167 205.438C200.559 205.664 200.509 206.059 200.057 206.32L194.301 209.643C193.849 209.903 193.165 209.932 192.774 209.706Z" fill="#06033E"/>
<path d="M192.421 200.966L226.326 220.541C226.747 220.784 226.747 221.178 226.326 221.421L220.457 224.809C220.036 225.052 219.354 225.052 218.933 224.809L185.028 205.234L192.421 200.966Z" fill="#06033E"/>
<path d="M257.64 242.888L263.072 246.024C263.393 246.209 263.353 246.533 262.982 246.747L260.627 248.106C260.257 248.32 259.696 248.343 259.375 248.158L253.944 245.022C253.623 244.837 253.663 244.513 254.034 244.299L256.388 242.94C256.759 242.726 257.319 242.703 257.64 242.888Z" fill="#06033E"/>
<path d="M250.047 238.504L255.479 241.64C255.8 241.825 255.76 242.149 255.389 242.363L253.035 243.722C252.664 243.936 252.104 243.959 251.783 243.774L246.352 240.638C246.031 240.453 246.071 240.129 246.442 239.915L248.796 238.556C249.166 238.343 249.726 238.319 250.047 238.504Z" fill="#06033E"/>
<path d="M242.517 234.157L247.949 237.293C248.27 237.478 248.23 237.802 247.859 238.016L245.505 239.375C245.134 239.589 244.574 239.612 244.253 239.427L238.821 236.291C238.5 236.106 238.54 235.782 238.911 235.568L241.265 234.209C241.636 233.995 242.196 233.972 242.517 234.157Z" fill="#06033E"/>
<path d="M254.206 236.104L259.637 239.24C259.958 239.425 259.918 239.749 259.547 239.963L257.192 241.322C256.822 241.536 256.261 241.559 255.94 241.374L250.508 238.238C250.187 238.053 250.227 237.729 250.598 237.515L252.953 236.156C253.324 235.942 253.885 235.918 254.206 236.104Z" fill="#06033E"/>
</g>
<g opacity="0.4">
<path d="M156.396 188.703L151.52 185.888C151.128 185.662 151.178 185.267 151.63 185.006L157.385 181.683C157.837 181.422 158.521 181.394 158.913 181.62L163.789 184.435C164.181 184.661 164.131 185.056 163.679 185.317L157.923 188.64C157.472 188.901 156.788 188.929 156.396 188.703Z" fill="#06033E"/>
<path d="M163.926 193.051L159.05 190.236C158.658 190.01 158.708 189.615 159.16 189.354L164.916 186.031C165.368 185.77 166.052 185.742 166.443 185.968L171.319 188.783C171.711 189.009 171.661 189.404 171.209 189.665L165.454 192.988C165.002 193.248 164.318 193.277 163.926 193.051Z" fill="#06033E"/>
<path d="M171.457 197.398L166.581 194.583C166.19 194.357 166.239 193.962 166.691 193.701L172.447 190.378C172.899 190.117 173.583 190.089 173.974 190.315L178.85 193.13C179.241 193.356 179.192 193.751 178.74 194.012L172.984 197.335C172.532 197.596 171.848 197.624 171.457 197.398Z" fill="#06033E"/>
<path d="M181.872 193.808L176.996 190.993C176.604 190.767 176.654 190.372 177.106 190.111L181.937 187.322C182.389 187.061 183.073 187.033 183.464 187.259L188.34 190.074C188.731 190.3 188.682 190.695 188.23 190.956L183.399 193.745C182.947 194.006 182.263 194.034 181.872 193.808Z" fill="#06033E"/>
<path d="M189.402 198.156L184.526 195.341C184.134 195.115 184.184 194.72 184.636 194.459L189.468 191.67C189.92 191.409 190.604 191.381 190.995 191.607L195.871 194.422C196.263 194.648 196.213 195.043 195.761 195.304L190.929 198.093C190.477 198.353 189.793 198.382 189.402 198.156Z" fill="#06033E"/>
<path d="M196.932 202.503L192.056 199.688C191.664 199.462 191.714 199.067 192.166 198.806L196.998 196.017C197.45 195.756 198.134 195.728 198.525 195.954L203.401 198.769C203.793 198.995 203.743 199.39 203.291 199.651L198.459 202.44C198.008 202.701 197.324 202.729 196.932 202.503Z" fill="#06033E"/>
<path d="M204.462 206.851L199.586 204.036C199.194 203.81 199.244 203.415 199.696 203.154L204.527 200.365C204.979 200.104 205.663 200.076 206.054 200.302L210.93 203.117C211.322 203.343 211.272 203.738 210.82 203.999L205.989 206.788C205.538 207.048 204.854 207.077 204.462 206.851Z" fill="#06033E"/>
<path d="M211.993 211.198L207.117 208.383C206.725 208.157 206.775 207.762 207.227 207.501L212.059 204.712C212.511 204.451 213.195 204.423 213.586 204.649L218.462 207.464C218.853 207.69 218.804 208.085 218.352 208.346L213.521 211.135C213.068 211.396 212.384 211.424 211.993 211.198Z" fill="#06033E"/>
<path d="M219.523 215.546L214.647 212.731C214.255 212.505 214.305 212.11 214.757 211.849L219.588 209.06C220.04 208.799 220.724 208.771 221.115 208.997L225.991 211.812C226.382 212.038 226.333 212.433 225.881 212.694L221.05 215.483C220.598 215.744 219.914 215.772 219.523 215.546Z" fill="#06033E"/>
<path d="M227.053 219.894L222.177 217.079C221.785 216.853 221.835 216.458 222.287 216.197L227.118 213.408C227.57 213.147 228.254 213.119 228.645 213.345L233.521 216.16C233.912 216.386 233.863 216.781 233.411 217.042L228.579 219.831C228.129 220.091 227.445 220.12 227.053 219.894Z" fill="#06033E"/>
<path d="M234.583 224.241L229.707 221.426C229.316 221.2 229.365 220.805 229.817 220.544L234.649 217.755C235.101 217.494 235.785 217.466 236.176 217.692L241.052 220.507C241.444 220.733 241.394 221.128 240.942 221.389L236.11 224.178C235.659 224.439 234.975 224.467 234.583 224.241Z" fill="#06033E"/>
<path d="M242.114 228.589L237.238 225.774C236.847 225.548 236.896 225.153 237.348 224.892L242.18 222.103C242.632 221.842 243.316 221.814 243.707 222.04L248.583 224.855C248.975 225.081 248.925 225.476 248.473 225.737L243.642 228.526C243.189 228.787 242.505 228.815 242.114 228.589Z" fill="#06033E"/>
<path d="M249.644 232.936L244.768 230.121C244.376 229.895 244.426 229.5 244.878 229.239L249.709 226.45C250.161 226.189 250.845 226.161 251.236 226.387L256.112 229.202C256.503 229.428 256.454 229.823 256.002 230.084L251.17 232.874C250.719 233.134 250.035 233.162 249.644 232.936Z" fill="#06033E"/>
<path d="M192.967 191.75L188.091 188.935C187.699 188.709 187.749 188.314 188.201 188.053L193.032 185.264C193.484 185.003 194.168 184.975 194.56 185.201L199.436 188.016C199.827 188.242 199.778 188.637 199.326 188.898L194.495 191.687C194.042 191.947 193.358 191.976 192.967 191.75Z" fill="#06033E"/>
<path d="M185.324 187.337L180.448 184.522C180.057 184.296 180.106 183.901 180.558 183.64L185.389 180.85C185.841 180.589 186.525 180.561 186.917 180.787L191.793 183.602C192.185 183.828 192.135 184.223 191.683 184.484L186.852 187.273C186.4 187.535 185.716 187.563 185.324 187.337Z" fill="#06033E"/>
<path d="M177.669 182.917L167.167 176.854C166.776 176.628 166.825 176.233 167.277 175.972L172.108 173.183C172.56 172.922 173.244 172.894 173.635 173.12L184.137 179.183C184.529 179.409 184.479 179.804 184.027 180.065L179.196 182.854C178.745 183.115 178.061 183.143 177.669 182.917Z" fill="#06033E"/>
<path d="M183.02 177.542L174.497 172.621C174.105 172.395 174.155 172 174.607 171.739L179.438 168.949C179.89 168.688 180.574 168.66 180.965 168.886L189.488 173.807C189.879 174.033 189.83 174.428 189.378 174.689L184.547 177.478C184.095 177.74 183.411 177.769 183.02 177.542Z" fill="#06033E"/>
<path d="M200.497 196.097L195.621 193.282C195.229 193.056 195.279 192.661 195.731 192.4L200.562 189.61C201.014 189.349 201.698 189.321 202.089 189.547L206.965 192.362C207.356 192.588 207.307 192.983 206.855 193.244L202.024 196.033C201.573 196.295 200.889 196.323 200.497 196.097Z" fill="#06033E"/>
<path d="M208.027 200.445L203.151 197.63C202.76 197.404 202.809 197.009 203.261 196.748L208.092 193.958C208.544 193.697 209.228 193.669 209.619 193.895L214.495 196.71C214.887 196.936 214.837 197.331 214.385 197.592L209.553 200.381C209.103 200.643 208.419 200.671 208.027 200.445Z" fill="#06033E"/>
<path d="M215.558 204.792L210.682 201.977C210.29 201.751 210.34 201.356 210.792 201.095L215.624 198.306C216.076 198.045 216.76 198.017 217.151 198.243L222.027 201.058C222.419 201.284 222.369 201.679 221.917 201.94L217.085 204.729C216.633 204.99 215.949 205.018 215.558 204.792Z" fill="#06033E"/>
<path d="M223.088 209.14L218.212 206.325C217.82 206.099 217.87 205.704 218.322 205.443L223.154 202.654C223.606 202.393 224.29 202.365 224.681 202.591L229.557 205.406C229.948 205.632 229.899 206.027 229.447 206.288L224.616 209.077C224.163 209.338 223.479 209.366 223.088 209.14Z" fill="#06033E"/>
<path d="M230.618 213.488L225.742 210.673C225.351 210.447 225.4 210.052 225.852 209.791L230.683 207.002C231.135 206.741 231.819 206.713 232.21 206.939L237.086 209.754C237.477 209.98 237.428 210.375 236.976 210.636L232.144 213.425C231.694 213.685 231.01 213.714 230.618 213.488Z" fill="#06033E"/>
<path d="M238.148 217.835L233.272 215.02C232.88 214.794 232.93 214.399 233.382 214.138L238.214 211.349C238.666 211.088 239.35 211.06 239.741 211.286L244.617 214.101C245.009 214.327 244.959 214.722 244.507 214.983L239.675 217.772C239.224 218.033 238.54 218.061 238.148 217.835Z" fill="#06033E"/>
<path d="M245.679 222.183L240.803 219.368C240.411 219.142 240.461 218.747 240.913 218.486L245.745 215.697C246.197 215.436 246.881 215.408 247.272 215.634L252.148 218.449C252.54 218.675 252.49 219.07 252.038 219.331L247.207 222.12C246.754 222.38 246.07 222.409 245.679 222.183Z" fill="#06033E"/>
<path d="M253.209 226.53L248.333 223.715C247.941 223.489 247.991 223.094 248.443 222.833L253.275 220.044C253.727 219.783 254.411 219.755 254.802 219.981L259.678 222.796C260.07 223.022 260.02 223.417 259.568 223.678L254.737 226.467C254.285 226.728 253.601 226.757 253.209 226.53Z" fill="#06033E"/>
<path d="M260.739 230.878L255.863 228.063C255.472 227.837 255.521 227.442 255.973 227.181L260.804 224.392C261.256 224.131 261.94 224.103 262.332 224.329L267.208 227.144C267.599 227.37 267.55 227.765 267.098 228.026L262.267 230.815C261.815 231.076 261.131 231.104 260.739 230.878Z" fill="#06033E"/>
<path d="M274.126 238.607L263.487 232.464C263.096 232.238 263.145 231.843 263.597 231.582L268.429 228.792C268.881 228.531 269.565 228.503 269.956 228.729L280.595 234.872C280.987 235.098 280.937 235.493 280.485 235.754L275.654 238.543C275.202 238.805 274.518 238.833 274.126 238.607Z" fill="#06033E"/>
<path d="M288.787 230.143L279.807 224.958C279.415 224.732 279.465 224.337 279.917 224.076L284.749 221.287C285.201 221.026 285.885 220.998 286.276 221.224L295.256 226.409C295.647 226.635 295.598 227.03 295.146 227.291L290.314 230.08C289.862 230.341 289.178 230.369 288.787 230.143Z" fill="#06033E"/>
<path d="M213.684 195.247L208.808 192.432C208.416 192.206 208.466 191.811 208.918 191.55L213.749 188.761C214.201 188.5 214.885 188.472 215.277 188.698L220.153 191.513C220.545 191.739 220.495 192.134 220.043 192.395L215.212 195.184C214.76 195.444 214.076 195.473 213.684 195.247Z" fill="#06033E"/>
<path d="M205.967 190.791L201.091 187.976C200.699 187.75 200.749 187.355 201.201 187.094L206.033 184.305C206.485 184.044 207.169 184.016 207.56 184.242L212.436 187.057C212.828 187.283 212.778 187.678 212.326 187.939L207.494 190.728C207.042 190.988 206.358 191.017 205.967 190.791Z" fill="#06033E"/>
<path d="M198.249 186.335L193.373 183.52C192.981 183.294 193.031 182.899 193.483 182.638L198.315 179.849C198.767 179.588 199.451 179.56 199.842 179.786L204.718 182.601C205.11 182.827 205.06 183.222 204.608 183.483L199.777 186.272C199.324 186.533 198.641 186.561 198.249 186.335Z" fill="#06033E"/>
<path d="M190.532 181.879L185.656 179.064C185.265 178.838 185.314 178.443 185.766 178.182L190.597 175.393C191.049 175.132 191.733 175.104 192.124 175.33L197 178.145C197.391 178.371 197.342 178.766 196.89 179.027L192.058 181.816C191.607 182.077 190.923 182.105 190.532 181.879Z" fill="#06033E"/>
<path d="M221.215 199.594L216.339 196.779C215.947 196.553 215.997 196.158 216.449 195.897L221.281 193.107C221.733 192.846 222.417 192.818 222.808 193.044L227.684 195.859C228.076 196.085 228.026 196.48 227.574 196.741L222.742 199.531C222.29 199.792 221.606 199.82 221.215 199.594Z" fill="#06033E"/>
<path d="M228.745 203.942L223.869 201.127C223.477 200.901 223.527 200.506 223.979 200.245L228.81 197.456C229.262 197.195 229.946 197.167 230.337 197.393L235.213 200.208C235.605 200.434 235.555 200.829 235.103 201.09L230.271 203.88C229.82 204.14 229.136 204.168 228.745 203.942Z" fill="#06033E"/>
<path d="M236.275 208.289L231.399 205.474C231.007 205.248 231.057 204.853 231.509 204.592L236.34 201.802C236.792 201.541 237.476 201.513 237.868 201.739L242.744 204.554C243.135 204.78 243.086 205.175 242.634 205.436L237.803 208.225C237.35 208.487 236.667 208.515 236.275 208.289Z" fill="#06033E"/>
<path d="M243.805 212.637L238.929 209.822C238.537 209.596 238.587 209.201 239.039 208.94L243.87 206.15C244.322 205.889 245.006 205.861 245.397 206.087L250.273 208.902C250.665 209.128 250.615 209.523 250.163 209.784L245.332 212.574C244.881 212.835 244.197 212.863 243.805 212.637Z" fill="#06033E"/>
<path d="M251.336 216.985L246.46 214.17C246.068 213.944 246.118 213.549 246.57 213.288L251.401 210.499C251.853 210.238 252.537 210.21 252.928 210.436L257.804 213.251C258.196 213.477 258.146 213.872 257.694 214.133L252.862 216.923C252.411 217.182 251.727 217.211 251.336 216.985Z" fill="#06033E"/>
<path d="M258.866 221.332L253.99 218.517C253.598 218.291 253.648 217.896 254.1 217.635L258.932 214.845C259.384 214.584 260.068 214.556 260.459 214.782L265.335 217.597C265.727 217.823 265.677 218.218 265.225 218.479L260.393 221.268C259.941 221.53 259.257 221.558 258.866 221.332Z" fill="#06033E"/>
<path d="M266.396 225.68L261.52 222.865C261.129 222.639 261.178 222.244 261.63 221.983L266.462 219.194C266.914 218.933 267.598 218.905 267.989 219.131L272.865 221.946C273.256 222.172 273.207 222.567 272.755 222.828L267.924 225.617C267.472 225.878 266.788 225.906 266.396 225.68Z" fill="#06033E"/>
<path d="M273.927 230.027L269.051 227.212C268.66 226.986 268.709 226.591 269.161 226.33L273.993 223.541C274.445 223.28 275.129 223.252 275.52 223.478L280.396 226.293C280.787 226.519 280.738 226.914 280.286 227.175L275.454 229.964C275.002 230.225 274.318 230.253 273.927 230.027Z" fill="#06033E"/>
<path d="M281.457 234.375L276.581 231.56C276.189 231.334 276.239 230.939 276.691 230.678L281.522 227.889C281.974 227.628 282.658 227.6 283.049 227.826L287.925 230.641C288.317 230.867 288.268 231.262 287.815 231.523L282.983 234.313C282.532 234.573 281.848 234.601 281.457 234.375Z" fill="#06033E"/>
<path d="M209.719 184.493L204.843 181.678C204.451 181.452 204.501 181.057 204.953 180.796L209.784 178.007C210.236 177.746 210.92 177.718 211.312 177.944L216.188 180.759C216.58 180.985 216.53 181.38 216.078 181.641L211.247 184.43C210.794 184.691 210.111 184.719 209.719 184.493Z" fill="#06033E"/>
<path d="M202.226 180.167L197.35 177.352C196.959 177.126 197.008 176.731 197.46 176.47L202.291 173.68C202.743 173.419 203.427 173.391 203.819 173.617L208.695 176.432C209.087 176.658 209.037 177.053 208.585 177.314L203.754 180.103C203.302 180.365 202.618 180.393 202.226 180.167Z" fill="#06033E"/>
<path d="M194.734 175.841L189.858 173.026C189.467 172.8 189.516 172.405 189.968 172.144L194.799 169.354C195.251 169.093 195.935 169.065 196.326 169.291L201.202 172.106C201.593 172.332 201.544 172.727 201.092 172.988L196.261 175.778C195.809 176.039 195.125 176.067 194.734 175.841Z" fill="#06033E"/>
<path d="M187.241 171.515L182.365 168.7C181.974 168.474 182.023 168.079 182.475 167.818L187.306 165.029C187.758 164.768 188.442 164.74 188.833 164.966L193.709 167.781C194.101 168.007 194.052 168.402 193.599 168.663L188.768 171.452C188.316 171.713 187.632 171.741 187.241 171.515Z" fill="#06033E"/>
<path d="M194.946 167.067L190.07 164.252C189.678 164.026 189.728 163.631 190.18 163.37L191.777 162.448C192.229 162.187 192.913 162.159 193.304 162.385L198.18 165.2C198.572 165.426 198.522 165.821 198.07 166.082L196.473 167.004C196.021 167.264 195.337 167.293 194.946 167.067Z" fill="#06033E"/>
<path d="M204.724 172.712L199.848 169.897C199.457 169.671 199.506 169.276 199.958 169.015L201.555 168.093C202.007 167.832 202.691 167.804 203.082 168.03L207.958 170.845C208.35 171.071 208.3 171.466 207.848 171.727L206.251 172.649C205.799 172.91 205.115 172.938 204.724 172.712Z" fill="#06033E"/>
<path d="M212.185 177.02L207.309 174.205C206.917 173.979 206.967 173.584 207.419 173.323L209.016 172.401C209.468 172.14 210.152 172.112 210.544 172.338L215.42 175.153C215.811 175.379 215.762 175.774 215.31 176.035L213.713 176.957C213.261 177.218 212.577 177.246 212.185 177.02Z" fill="#06033E"/>
<path d="M219.647 181.328L214.771 178.513C214.38 178.287 214.429 177.892 214.881 177.631L216.478 176.709C216.93 176.448 217.614 176.42 218.005 176.646L222.881 179.461C223.273 179.687 223.223 180.082 222.771 180.343L221.174 181.265C220.722 181.526 220.038 181.554 219.647 181.328Z" fill="#06033E"/>
<path d="M227.108 185.636L222.232 182.821C221.841 182.595 221.89 182.2 222.342 181.939L223.939 181.017C224.391 180.756 225.075 180.728 225.466 180.954L230.342 183.769C230.734 183.995 230.684 184.39 230.232 184.651L228.635 185.573C228.184 185.834 227.5 185.862 227.108 185.636Z" fill="#06033E"/>
<path d="M268.765 209.687L263.889 206.872C263.498 206.646 263.547 206.251 263.999 205.99L265.596 205.068C266.048 204.807 266.732 204.779 267.123 205.005L271.999 207.82C272.391 208.046 272.341 208.441 271.889 208.702L270.292 209.624C269.841 209.884 269.157 209.913 268.765 209.687Z" fill="#06033E"/>
<path d="M276.227 213.994L271.351 211.179C270.959 210.953 271.009 210.558 271.461 210.297L273.058 209.375C273.51 209.114 274.194 209.086 274.586 209.312L279.462 212.127C279.854 212.353 279.804 212.748 279.352 213.009L277.755 213.931C277.302 214.192 276.618 214.221 276.227 213.994Z" fill="#06033E"/>
<path d="M283.689 218.302L278.813 215.487C278.421 215.261 278.471 214.866 278.923 214.605L280.52 213.683C280.972 213.422 281.656 213.394 282.047 213.62L286.923 216.435C287.314 216.661 287.265 217.056 286.813 217.317L285.216 218.239C284.764 218.5 284.08 218.529 283.689 218.302Z" fill="#06033E"/>
<path d="M291.15 222.61L286.274 219.795C285.882 219.569 285.932 219.174 286.384 218.913L287.981 217.991C288.433 217.73 289.117 217.702 289.508 217.928L294.384 220.743C294.776 220.969 294.726 221.364 294.274 221.625L292.677 222.547C292.225 222.808 291.542 222.836 291.15 222.61Z" fill="#06033E"/>
<path d="M217.249 188.841L212.373 186.026C211.982 185.8 212.031 185.405 212.483 185.144L217.314 182.355C217.766 182.094 218.45 182.066 218.841 182.292L223.717 185.107C224.108 185.333 224.059 185.728 223.607 185.989L218.776 188.778C218.325 189.038 217.641 189.067 217.249 188.841Z" fill="#06033E"/>
<path d="M224.78 193.188L219.904 190.373C219.512 190.147 219.562 189.752 220.014 189.491L224.845 186.702C225.297 186.441 225.981 186.413 226.372 186.639L231.248 189.454C231.64 189.68 231.59 190.075 231.138 190.336L226.307 193.125C225.855 193.386 225.171 193.414 224.78 193.188Z" fill="#06033E"/>
<path d="M232.31 197.536L227.434 194.721C227.042 194.495 227.092 194.1 227.544 193.839L232.375 191.05C232.827 190.789 233.511 190.761 233.902 190.987L238.778 193.802C239.17 194.028 239.12 194.423 238.668 194.684L233.836 197.474C233.385 197.734 232.702 197.762 232.31 197.536Z" fill="#06033E"/>
<path d="M239.84 201.884L234.964 199.069C234.572 198.843 234.622 198.448 235.074 198.187L239.906 195.398C240.358 195.137 241.042 195.109 241.433 195.335L246.309 198.15C246.701 198.376 246.651 198.771 246.199 199.032L241.368 201.821C240.916 202.081 240.232 202.11 239.84 201.884Z" fill="#06033E"/>
<path d="M247.371 206.231L242.495 203.416C242.104 203.19 242.153 202.795 242.605 202.534L247.437 199.745C247.889 199.484 248.573 199.456 248.964 199.682L253.84 202.497C254.231 202.723 254.182 203.118 253.73 203.379L248.899 206.169C248.446 206.429 247.762 206.457 247.371 206.231Z" fill="#06033E"/>
<path d="M254.901 210.579L250.025 207.764C249.633 207.538 249.683 207.143 250.135 206.882L254.967 204.093C255.419 203.832 256.103 203.804 256.494 204.03L261.37 206.845C261.761 207.071 261.712 207.466 261.26 207.727L256.428 210.517C255.976 210.776 255.292 210.805 254.901 210.579Z" fill="#06033E"/>
<path d="M262.431 214.926L257.555 212.111C257.163 211.885 257.213 211.49 257.665 211.229L262.497 208.44C262.949 208.179 263.633 208.151 264.024 208.377L268.9 211.192C269.292 211.418 269.242 211.813 268.79 212.074L263.958 214.863C263.506 215.124 262.823 215.152 262.431 214.926Z" fill="#06033E"/>
<path d="M269.961 219.274L265.085 216.459C264.693 216.233 264.743 215.838 265.195 215.577L270.026 212.788C270.478 212.527 271.162 212.499 271.553 212.725L276.429 215.54C276.821 215.766 276.771 216.161 276.319 216.422L271.488 219.212C271.037 219.472 270.353 219.5 269.961 219.274Z" fill="#06033E"/>
<path d="M277.492 223.621L272.616 220.806C272.225 220.58 272.274 220.185 272.726 219.924L277.558 217.135C278.01 216.874 278.694 216.846 279.085 217.072L283.961 219.887C284.353 220.113 284.303 220.508 283.851 220.769L279.02 223.558C278.567 223.819 277.883 223.848 277.492 223.621Z" fill="#06033E"/>
<path d="M174.198 189.377L159.837 181.086C159.446 180.86 159.495 180.465 159.947 180.204L164.778 177.415C165.23 177.154 165.914 177.126 166.306 177.352L180.667 185.643C181.058 185.869 181.009 186.264 180.557 186.525L175.725 189.314C175.273 189.575 174.589 189.604 174.198 189.377Z" fill="#06033E"/>
<path d="M266.709 242.789L252.348 234.498C251.957 234.272 252.006 233.877 252.458 233.616L257.29 230.827C257.742 230.566 258.426 230.538 258.817 230.764L273.178 239.055C273.57 239.281 273.52 239.676 273.068 239.937L268.236 242.726C267.784 242.986 267.1 243.015 266.709 242.789Z" fill="#06033E"/>
<path d="M236.594 235.005L231.718 232.19C231.326 231.964 231.376 231.569 231.828 231.308L237.584 227.985C238.036 227.724 238.72 227.696 239.111 227.922L243.987 230.737C244.378 230.963 244.329 231.358 243.877 231.619L238.121 234.942C237.67 235.203 236.986 235.232 236.594 235.005Z" fill="#06033E"/>
<path d="M181.909 203.433L174.111 198.931C173.72 198.705 173.769 198.31 174.221 198.049L179.977 194.726C180.429 194.465 181.113 194.437 181.504 194.663L189.302 199.165C189.694 199.391 189.644 199.786 189.192 200.047L183.436 203.37C182.985 203.631 182.301 203.659 181.909 203.433Z" fill="#06033E"/>
<path d="M229.339 230.817L221.541 226.315C221.149 226.089 221.199 225.694 221.651 225.433L227.407 222.11C227.859 221.849 228.543 221.821 228.934 222.047L236.732 226.549C237.123 226.775 237.074 227.17 236.622 227.431L230.867 230.754C230.414 231.014 229.73 231.043 229.339 230.817Z" fill="#06033E"/>
<path d="M192.774 209.706L184.976 205.204C184.585 204.978 184.634 204.583 185.086 204.322L190.842 200.999C191.294 200.738 191.978 200.71 192.369 200.936L200.167 205.438C200.559 205.664 200.509 206.059 200.057 206.32L194.301 209.643C193.849 209.903 193.165 209.932 192.774 209.706Z" fill="#06033E"/>
<path d="M192.421 200.966L226.326 220.541C226.747 220.784 226.747 221.178 226.326 221.421L220.457 224.809C220.036 225.052 219.354 225.052 218.933 224.809L185.028 205.234L192.421 200.966Z" fill="#06033E"/>
<path d="M257.64 242.888L263.072 246.024C263.393 246.209 263.353 246.533 262.982 246.747L260.627 248.106C260.257 248.32 259.696 248.343 259.375 248.158L253.944 245.022C253.623 244.837 253.663 244.513 254.034 244.299L256.388 242.94C256.759 242.726 257.319 242.703 257.64 242.888Z" fill="#06033E"/>
<path d="M250.047 238.504L255.479 241.64C255.8 241.825 255.76 242.149 255.389 242.363L253.035 243.722C252.664 243.936 252.104 243.959 251.783 243.774L246.352 240.638C246.031 240.453 246.071 240.129 246.442 239.915L248.796 238.556C249.166 238.343 249.726 238.319 250.047 238.504Z" fill="#06033E"/>
<path d="M242.517 234.157L247.949 237.293C248.27 237.478 248.23 237.802 247.859 238.016L245.505 239.375C245.134 239.589 244.574 239.612 244.253 239.427L238.821 236.291C238.5 236.106 238.54 235.782 238.911 235.568L241.265 234.209C241.636 233.995 242.196 233.972 242.517 234.157Z" fill="#06033E"/>
<path d="M254.206 236.104L259.637 239.24C259.958 239.425 259.918 239.749 259.547 239.963L257.192 241.322C256.822 241.536 256.261 241.559 255.94 241.374L250.508 238.238C250.187 238.053 250.227 237.729 250.598 237.515L252.953 236.156C253.324 235.942 253.885 235.918 254.206 236.104Z" fill="#06033E"/>
</g>
<path d="M333.901 227.308L190.039 144.249C187.777 142.943 186.596 139.76 187.402 137.141L219.936 31.51C220.742 28.891 223.229 27.826 225.491 29.132L369.353 112.191C371.615 113.497 372.796 116.679 371.99 119.299L339.456 224.93C338.651 227.55 336.164 228.614 333.901 227.308Z" fill="url(#paint7_radial_20_2)"/>
<path d="M332.545 223.609L193.007 142.98C190.842 141.73 189.712 138.685 190.483 136.178L221.587 35.195C222.358 32.688 224.738 31.669 226.903 32.919L366.441 113.548C368.606 114.798 369.736 117.843 368.965 120.35L337.861 221.333C337.09 223.84 334.71 224.859 332.545 223.609Z" fill="url(#paint8_linear_20_2)"/>
<path opacity="0.4" d="M332.545 223.609L193.007 142.98C190.842 141.73 189.712 138.685 190.483 136.178L221.587 35.195C222.358 32.688 224.738 31.669 226.903 32.919L366.441 113.548C368.606 114.798 369.736 117.843 368.965 120.35L337.861 221.333C337.09 223.84 334.71 224.859 332.545 223.609Z" fill="#06033E"/>
<path opacity="0.4" d="M332.545 223.609L193.007 142.98C190.842 141.73 189.712 138.685 190.483 136.178L221.587 35.195C222.358 32.688 224.738 31.669 226.903 32.919L366.441 113.548C368.606 114.798 369.736 117.843 368.965 120.35L337.861 221.333C337.09 223.84 334.71 224.859 332.545 223.609Z" fill="#06033E"/>
<path opacity="0.5" d="M325.048 192.749L230.588 138.213C229.103 137.355 228.327 135.266 228.856 133.546L250.218 64.1881C250.747 62.4681 252.38 61.7691 253.866 62.6261L348.326 117.162C349.811 118.02 350.587 120.109 350.058 121.829L328.696 191.187C328.167 192.907 326.534 193.606 325.048 192.749Z" fill="#06033E"/>
<path d="M312.285 194.423L217.825 139.887C216.34 139.029 215.564 136.94 216.093 135.22L237.455 65.862C237.984 64.142 239.617 63.443 241.102 64.3L335.562 118.837C337.047 119.695 337.822 121.784 337.293 123.504L315.931 192.862C315.404 194.582 313.771 195.281 312.285 194.423Z" fill="url(#paint9_radial_20_2)"/>
<g opacity="0.5">
<path d="M312.285 194.423L217.825 139.887C216.34 139.029 215.564 136.94 216.093 135.22L237.455 65.862C237.984 64.142 239.617 63.443 241.102 64.3L335.562 118.837C337.047 119.695 337.822 121.784 337.293 123.504L315.931 192.862C315.404 194.582 313.771 195.281 312.285 194.423Z" fill="#06033E"/>
</g>
<path d="M335.563 118.837L241.103 64.3C240.172 63.763 239.184 63.837 238.445 64.39C238.89 64.377 239.355 64.478 239.809 64.739L334.269 119.275C335.754 120.132 336.529 122.222 336 123.942L314.638 193.3C314.44 193.942 314.088 194.441 313.648 194.771C314.661 194.741 315.564 194.055 315.932 192.86L337.294 123.502C337.824 121.784 337.048 119.694 335.563 118.837Z" fill="white"/>
<path opacity="0.4" d="M193.149 251.061C191.847 251.061 190.601 250.79 189.649 250.241V250.242L151.803 228.392C150.8 227.812 150.248 226.985 150.248 226.06C150.247 224.988 151.009 223.933 152.335 223.167L171.815 211.919C174.196 210.546 177.689 210.411 179.772 211.612L217.617 233.462C218.62 234.041 219.172 234.869 219.173 235.794C219.173 236.866 218.412 237.921 217.086 238.686L197.604 249.934C196.314 250.68 194.693 251.061 193.149 251.061ZM176.291 211.899C174.923 211.899 173.47 212.228 172.363 212.867L152.883 224.114C151.903 224.679 151.341 225.389 151.341 226.06C151.341 226.723 151.89 227.179 152.351 227.445L190.197 249.295C191.914 250.284 195.055 250.146 197.059 248.987L216.54 237.74C217.519 237.175 218.081 236.465 218.081 235.794C218.081 235.131 217.532 234.675 217.071 234.409L179.226 212.559C178.458 212.115 177.402 211.899 176.291 211.899Z" fill="#06033E"/>
<path d="M264.111 100.688L258.271 97.3161C257.729 97.0031 257.439 96.2511 257.622 95.6371C257.805 95.0221 258.393 94.7781 258.935 95.0911L264.775 98.4631C265.317 98.7761 265.607 99.5281 265.424 100.142C265.24 100.756 264.652 101 264.111 100.688Z" fill="white"/>
<path d="M278.021 108.719L269.41 103.747C268.868 103.434 268.578 102.682 268.761 102.068C268.944 101.453 269.532 101.209 270.074 101.522L278.685 106.493C279.227 106.806 279.517 107.558 279.334 108.172C279.151 108.787 278.563 109.032 278.021 108.719Z" fill="white"/>
<path d="M252.333 126.687L246.493 123.315C245.951 123.002 245.661 122.25 245.844 121.636C246.027 121.021 246.615 120.777 247.157 121.089L252.997 124.461C253.539 124.774 253.829 125.526 253.646 126.14C253.463 126.755 252.875 127 252.333 126.687Z" fill="white"/>
<path d="M264.733 133.847L256.122 128.876C255.58 128.563 255.29 127.811 255.473 127.197C255.656 126.582 256.244 126.338 256.786 126.651L265.397 131.623C265.939 131.936 266.229 132.688 266.046 133.302C265.863 133.915 265.275 134.159 264.733 133.847Z" fill="white"/>
<path d="M246.617 96.054L242.969 93.948C242.427 93.635 242.137 92.883 242.32 92.269C242.503 91.654 243.091 91.41 243.633 91.723L247.281 93.829C247.823 94.142 248.113 94.894 247.93 95.508C247.747 96.122 247.159 96.367 246.617 96.054Z" fill="white"/>
<path d="M257.594 107.858L246.448 101.423C245.906 101.11 245.616 100.358 245.799 99.744C245.982 99.129 246.57 98.885 247.112 99.198L258.258 105.633C258.8 105.946 259.09 106.698 258.907 107.312C258.724 107.927 258.136 108.171 257.594 107.858Z" fill="white"/>
<path d="M247.314 112.856L243.666 110.75C243.124 110.437 242.834 109.685 243.017 109.071C243.2 108.456 243.788 108.212 244.33 108.525L247.978 110.631C248.52 110.944 248.81 111.696 248.627 112.31C248.443 112.924 247.855 113.169 247.314 112.856Z" fill="white"/>
<path d="M266.078 145.556L256.334 139.93C255.792 139.617 255.502 138.865 255.685 138.251C255.868 137.636 256.456 137.392 256.998 137.705L266.742 143.331C267.284 143.644 267.574 144.396 267.391 145.01C267.207 145.624 266.62 145.869 266.078 145.556Z" fill="white"/>
<path d="M243.225 121.429L240.883 120.077C240.341 119.764 240.051 119.012 240.234 118.398C240.417 117.783 241.005 117.539 241.547 117.852L243.889 119.204C244.431 119.517 244.721 120.269 244.538 120.883C244.354 121.497 243.767 121.741 243.225 121.429Z" fill="white"/>
<path d="M241.009 131.082L238.101 129.403C237.559 129.09 237.269 128.338 237.452 127.724C237.635 127.109 238.223 126.865 238.765 127.178L241.673 128.857C242.215 129.17 242.505 129.922 242.322 130.536C242.139 131.15 241.551 131.395 241.009 131.082Z" fill="white"/>
<path d="M252.322 137.614L244.655 133.188C244.113 132.875 243.823 132.123 244.006 131.509C244.189 130.894 244.777 130.65 245.319 130.963L252.986 135.389C253.528 135.702 253.818 136.454 253.635 137.068C253.452 137.682 252.864 137.927 252.322 137.614Z" fill="white"/>
<path d="M242.222 137.249L236.71 134.066C236.168 133.753 235.878 133.001 236.061 132.387C236.244 131.772 236.832 131.528 237.374 131.841L242.887 135.024C243.429 135.337 243.719 136.089 243.536 136.703C243.352 137.317 242.764 137.562 242.222 137.249Z" fill="white"/>
<path d="M274.437 150.406L270.897 148.362C270.355 148.049 270.065 147.297 270.248 146.683C270.431 146.068 271.019 145.824 271.561 146.137L275.101 148.181C275.643 148.494 275.933 149.246 275.75 149.86C275.567 150.474 274.979 150.718 274.437 150.406Z" fill="white"/>
<path d="M260.884 120.691L251.14 115.065C250.598 114.752 250.308 114 250.491 113.386C250.674 112.771 251.262 112.527 251.804 112.84L261.548 118.466C262.09 118.779 262.38 119.531 262.197 120.145C262.014 120.759 261.426 121.004 260.884 120.691Z" fill="white"/>
<path d="M262.039 115.891L245.057 106.086C244.515 105.773 244.225 105.021 244.408 104.407C244.591 103.792 245.179 103.548 245.721 103.861L262.703 113.666C263.245 113.979 263.535 114.731 263.352 115.345C263.169 115.959 262.581 116.204 262.039 115.891Z" fill="#E8975B"/>
<path d="M252.018 121.039L242.274 115.413C241.732 115.1 241.442 114.348 241.625 113.734C241.808 113.119 242.396 112.875 242.938 113.188L252.682 118.814C253.224 119.127 253.514 119.879 253.331 120.493C253.148 121.107 252.56 121.352 252.018 121.039Z" fill="#E8975B"/>
<path d="M268.274 124.958L264.734 122.914C264.192 122.601 263.902 121.849 264.085 121.235C264.268 120.62 264.856 120.376 265.398 120.689L268.938 122.733C269.48 123.046 269.77 123.798 269.587 124.412C269.404 125.026 268.816 125.271 268.274 124.958Z" fill="#E8975B"/>
<path d="M304.285 123.883L283.32 111.779C282.778 111.466 282.488 110.714 282.671 110.1C282.854 109.485 283.442 109.241 283.984 109.554L304.949 121.658C305.491 121.971 305.781 122.723 305.598 123.337C305.415 123.951 304.827 124.195 304.285 123.883Z" fill="#E8975B"/>
<path d="M251.205 131.502L239.492 124.74C238.95 124.427 238.66 123.675 238.843 123.061C239.026 122.446 239.614 122.202 240.156 122.514L251.869 129.276C252.411 129.589 252.701 130.341 252.518 130.955C252.335 131.57 251.747 131.815 251.205 131.502Z" fill="#F8359E"/>
<path d="M252.971 94.256L244.36 89.284C243.818 88.971 243.528 88.219 243.711 87.605C243.894 86.99 244.482 86.746 245.024 87.059L253.635 92.031C254.177 92.344 254.467 93.096 254.284 93.71C254.101 94.324 253.513 94.569 252.971 94.256Z" fill="#F8359E"/>
<path d="M240.421 141.676L230.448 135.918C229.906 135.605 229.616 134.853 229.799 134.239C229.982 133.624 230.57 133.38 231.112 133.692L241.085 139.45C241.627 139.763 241.917 140.515 241.734 141.129C241.551 141.744 240.963 141.989 240.421 141.676Z" fill="#E8975B"/>
<path d="M306.639 113.101L302.371 110.636C301.975 110.407 301.762 109.858 301.897 109.409C302.031 108.96 302.461 108.781 302.857 109.01L307.125 111.474C307.521 111.703 307.733 112.252 307.599 112.702C307.464 113.15 307.035 113.329 306.639 113.101Z" fill="white"/>
<path d="M314.781 117.802L310.512 115.337C310.116 115.108 309.904 114.559 310.038 114.11C310.172 113.661 310.602 113.482 310.998 113.711L315.266 116.175C315.662 116.404 315.874 116.953 315.74 117.402C315.607 117.851 315.177 118.03 314.781 117.802Z" fill="white"/>
<path d="M322.923 122.502L318.655 120.038C318.259 119.809 318.047 119.26 318.181 118.811C318.315 118.362 318.745 118.183 319.141 118.412L323.409 120.876C323.805 121.105 324.018 121.654 323.884 122.103C323.749 122.552 323.319 122.731 322.923 122.502Z" fill="white"/>
<path d="M326.925 124.816L326.797 124.739C326.401 124.51 326.189 123.961 326.323 123.512C326.457 123.063 326.887 122.884 327.283 123.113L327.411 123.19C327.807 123.419 328.019 123.968 327.885 124.417C327.751 124.866 327.321 125.045 326.925 124.816Z" fill="#F8359E"/>
<path d="M106.612 174.77C103.911 174.77 101.209 174.075 98.8001 172.683L70.2051 156.173C68.9651 155.457 68.2251 154.176 68.2251 152.744C68.2251 151.312 68.9651 150.031 70.2051 149.315L98.7991 132.806C103.617 130.024 109.607 130.023 114.425 132.806L143.02 149.316C144.26 150.032 145 151.313 145 152.745C145 154.177 144.26 155.458 143.02 156.174L114.426 172.683C112.017 174.075 109.314 174.77 106.612 174.77ZM99.7301 171.072C103.976 173.522 109.25 173.522 113.497 171.072L142.091 154.563C142.747 154.183 143.14 153.504 143.14 152.746C143.14 151.988 142.747 151.308 142.091 150.929L113.496 134.419C109.248 131.967 103.974 131.969 99.7291 134.419L71.1351 150.928C70.4791 151.308 70.0861 151.987 70.0861 152.745C70.0861 153.504 70.4791 154.183 71.1351 154.562L99.7301 171.072Z" fill="url(#paint10_linear_20_2)"/>
<path opacity="0.6" d="M120.356 161.153C112.686 165.581 100.25 165.581 92.5799 161.153C84.9099 156.725 84.9099 149.545 92.5799 145.117C100.25 140.689 112.686 140.689 120.356 145.117C128.026 149.545 128.026 156.724 120.356 161.153Z" fill="#020230"/>
<path d="M135.582 72.315H79.6399L84.8429 132.884C84.8429 136.248 87.0659 139.612 91.5119 142.179C100.404 147.313 114.82 147.313 123.711 142.179C128.157 139.612 130.38 136.248 130.379 132.884L135.582 72.315Z" fill="url(#paint11_radial_20_2)"/>
<path opacity="0.4" d="M135.582 72.315H79.6399L80.4959 82.28C81.7779 83.924 83.5029 85.5 85.6809 86.944C96.3709 94.035 114.009 95.402 126.045 90.295L124.184 134.595C124.103 136.526 123.436 138.404 122.185 139.877C120.373 142.01 116.882 144.519 110.171 145.938C115.118 145.617 119.919 144.37 123.712 142.18C128.158 139.613 130.381 136.249 130.38 132.885L134.553 84.31L135.582 72.315Z" fill="#06033E"/>
<path opacity="0.4" d="M107.611 88.464C123.059 88.464 135.582 81.2339 135.582 72.315C135.582 63.3962 123.059 56.166 107.611 56.166C92.1629 56.166 79.6399 63.3962 79.6399 72.315C79.6399 81.2339 92.1629 88.464 107.611 88.464Z" fill="#06033E"/>
<path opacity="0.4" d="M107.611 80.533C120.917 80.533 131.703 74.3053 131.703 66.623C131.703 58.9407 120.917 52.713 107.611 52.713C94.3053 52.713 83.5189 58.9407 83.5189 66.623C83.5189 74.3053 94.3053 80.533 107.611 80.533Z" fill="#06033E"/>
<path d="M137.239 71.554L137.242 71.558L137.237 71.509C137.235 71.481 137.231 71.454 137.229 71.426L136.692 66.003L136.669 66.064C136.429 61.959 133.602 57.895 128.175 54.762C116.818 48.205 98.4049 48.205 87.0489 54.762C81.4849 57.975 78.6539 62.165 78.5429 66.375L78.5359 66.361L78.0239 71.19C78.0099 71.316 77.9929 71.441 77.9839 71.567L77.9759 71.646L77.9809 71.642C77.6739 76.243 80.5569 80.901 86.6409 84.413C98.2229 91.1 117.002 91.1 128.585 84.413C134.705 80.879 137.588 76.184 137.239 71.554Z" fill="url(#paint12_linear_20_2)"/>
<path d="M107.611 80.533C120.917 80.533 131.703 74.3053 131.703 66.623C131.703 58.9407 120.917 52.713 107.611 52.713C94.3053 52.713 83.5189 58.9407 83.5189 66.623C83.5189 74.3053 94.3053 80.533 107.611 80.533Z" fill="url(#paint13_linear_20_2)"/>
<path d="M106.468 80.533C119.774 80.533 130.56 74.3053 130.56 66.623C130.56 58.9407 119.774 52.713 106.468 52.713C93.1623 52.713 82.3759 58.9407 82.3759 66.623C82.3759 74.3053 93.1623 80.533 106.468 80.533Z" fill="url(#paint14_linear_20_2)"/>
<path opacity="0.4" d="M93.4329 58.859C102.841 53.427 118.096 53.427 127.504 58.859C127.624 58.928 127.724 59.004 127.841 59.074C126.933 58.265 125.874 57.496 124.646 56.787C115.237 51.355 99.9829 51.355 90.5749 56.787C81.2859 62.15 81.1859 70.796 90.2379 76.243C84.1939 70.854 85.2529 63.582 93.4329 58.859Z" fill="#06033E"/>
<path d="M90.5749 59.201C99.9839 53.769 115.238 53.769 124.647 59.201C128.819 61.61 131.137 64.682 131.609 67.83C132.201 63.879 129.883 59.81 124.647 56.787C115.238 51.355 99.9839 51.355 90.5749 56.787C85.3389 59.81 83.0209 63.879 83.6129 67.829C84.0849 64.682 86.4029 61.61 90.5749 59.201Z" fill="url(#paint15_linear_20_2)"/>
<path d="M128.354 54.889C117.013 48.208 98.5329 48.045 87.0769 54.526C75.6209 61.006 75.5279 71.676 86.8679 78.357C98.2079 85.038 116.688 85.201 128.145 78.721C139.601 72.24 139.694 61.57 128.354 54.889ZM124.647 76.459C121.504 78.274 117.704 79.468 113.692 80.07L113.255 78.633C113.078 78.053 112.543 77.656 111.937 77.656H103.286C102.68 77.656 102.144 78.053 101.968 78.633L101.531 80.07C97.5189 79.468 93.7199 78.274 90.5769 76.459C81.1679 71.027 81.1679 62.22 90.5759 56.788C99.9839 51.356 115.239 51.356 124.647 56.788C134.055 62.22 134.055 71.027 124.647 76.459Z" fill="url(#paint16_radial_20_2)"/>
<path d="M124.646 55.758C115.237 50.326 99.9829 50.326 90.5749 55.758C85.6439 58.605 83.3019 62.379 83.5399 66.108C83.7559 62.722 86.0979 59.373 90.5749 56.788C99.9829 51.356 115.238 51.356 124.646 56.788C129.123 59.373 131.465 62.722 131.681 66.109C131.92 62.379 129.578 58.605 124.646 55.758Z" fill="white"/>
<path d="M128.144 77.69C116.688 84.17 98.2079 84.008 86.8669 77.326C81.4709 74.147 78.6689 70.064 78.4429 65.959C78.2199 70.404 81.0189 74.91 86.8669 78.356C98.2079 85.037 116.688 85.2 128.144 78.72C134.148 75.324 137.026 70.776 136.777 66.255C136.568 70.431 133.693 74.552 128.144 77.69Z" fill="white"/>
<path d="M110.196 80.818H105.025C104.664 80.818 104.372 80.525 104.372 80.165V80.074C104.372 79.713 104.664 79.42 105.025 79.42H110.196C110.557 79.42 110.849 79.713 110.849 80.074V80.165C110.85 80.525 110.557 80.818 110.196 80.818Z" fill="#0C0A78"/>
<path d="M110.196 79.42H105.025C104.664 79.42 104.372 79.713 104.372 80.074V80.165C104.372 80.227 104.391 80.282 104.407 80.339C104.484 80.065 104.726 79.86 105.025 79.86H110.196C110.495 79.86 110.737 80.065 110.814 80.339C110.83 80.282 110.849 80.227 110.849 80.165V80.074C110.85 79.712 110.557 79.42 110.196 79.42Z" fill="url(#paint17_linear_20_2)"/>
<path opacity="0.5" d="M109.443 80.119C109.443 80.119 125.083 74.878 118.75 56.907C112.417 38.936 100.088 33.459 105.055 19.083C105.055 19.083 97.271 30.721 104.545 46.467C111.819 62.213 113.414 60.404 113.329 67.935C113.227 76.882 106 80.12 106 80.12L109.443 80.119Z" fill="white"/>
<path opacity="0.5" d="M110.85 21.583C110.85 21.583 109.222 10.833 119.305 0C119.305 0 110.388 19.917 113.305 29.75C113.305 29.75 110.946 23.499 110.85 21.583Z" fill="white"/>
<defs>
<linearGradient id="paint0_linear_20_2" x1="405.874" y1="269.368" x2="438.485" y2="269.368" gradientUnits="userSpaceOnUse">
<stop stop-color="#E39A65"/>
<stop offset="1" stop-color="#E95F8D"/>
</linearGradient>
<linearGradient id="paint1_linear_20_2" x1="361.223" y1="224.675" x2="416.001" y2="224.675" gradientUnits="userSpaceOnUse">
<stop stop-color="#E39A65"/>
<stop offset="1" stop-color="#E95F8D"/>
</linearGradient>
<linearGradient id="paint2_linear_20_2" x1="0" y1="243.027" x2="54.7783" y2="243.027" gradientUnits="userSpaceOnUse">
<stop stop-color="#E39A65"/>
<stop offset="1" stop-color="#E95F8D"/>
</linearGradient>
<linearGradient id="paint3_linear_20_2" x1="63.7743" y1="239.514" x2="356.133" y2="239.514" gradientUnits="userSpaceOnUse">
<stop stop-color="#E39A65"/>
<stop offset="1" stop-color="#E95F8D"/>
</linearGradient>
<radialGradient id="paint4_radial_20_2" cx="0" cy="0" r="1" gradientUnits="userSpaceOnUse" gradientTransform="translate(225.261 23.0592) scale(223.296)">
<stop stop-color="#E39A65"/>
<stop offset="0.4742" stop-color="#A92FFB"/>
<stop offset="0.5947" stop-color="#891CFB"/>
<stop offset="0.7421" stop-color="#6507FA"/>
<stop offset="0.8016" stop-color="#0D0C6F"/>
</radialGradient>
<radialGradient id="paint5_radial_20_2" cx="0" cy="0" r="1" gradientUnits="userSpaceOnUse" gradientTransform="translate(88.6881 202.382) scale(244.172)">
<stop stop-color="#E39A65"/>
<stop offset="0.4742" stop-color="#A92FFB"/>
<stop offset="0.5679" stop-color="#891CFB"/>
<stop offset="0.6825" stop-color="#6507FA"/>
<stop offset="0.7381" stop-color="#0D0C6F"/>
</radialGradient>
<radialGradient id="paint6_radial_20_2" cx="0" cy="0" r="1" gradientUnits="userSpaceOnUse" gradientTransform="translate(111.145 153.373) scale(218.96 218.96)">
<stop stop-color="#E39A65"/>
<stop offset="0.4742" stop-color="#A92FFB"/>
<stop offset="0.5875" stop-color="#891CFB"/>
<stop offset="0.7262" stop-color="#6507FA"/>
<stop offset="1" stop-color="#3919BB"/>
</radialGradient>
<radialGradient id="paint7_radial_20_2" cx="0" cy="0" r="1" gradientUnits="userSpaceOnUse" gradientTransform="translate(165.693 69.6367) scale(223.341)">
<stop stop-color="#E39A65"/>
<stop offset="0.4742" stop-color="#A92FFB"/>
<stop offset="0.5875" stop-color="#891CFB"/>
<stop offset="0.7262" stop-color="#6507FA"/>
<stop offset="1" stop-color="#3919BB"/>
</radialGradient>
<linearGradient id="paint8_linear_20_2" x1="190.24" y1="128.264" x2="369.207" y2="128.264" gradientUnits="userSpaceOnUse">
<stop stop-color="#3919BB"/>
<stop offset="1" stop-color="#6507FA"/>
</linearGradient>
<radialGradient id="paint9_radial_20_2" cx="0" cy="0" r="1" gradientUnits="userSpaceOnUse" gradientTransform="translate(84.1611 21.9434) scale(347.847 347.848)">
<stop stop-color="#E39A65"/>
<stop offset="0.4742" stop-color="#A92FFB"/>
<stop offset="0.5875" stop-color="#891CFB"/>
<stop offset="0.7262" stop-color="#6507FA"/>
<stop offset="1" stop-color="#3919BB"/>
</radialGradient>
<linearGradient id="paint10_linear_20_2" x1="68.2247" y1="152.746" x2="145" y2="152.746" gradientUnits="userSpaceOnUse">
<stop stop-color="#E39A65"/>
<stop offset="1" stop-color="#E95F8D"/>
</linearGradient>
<radialGradient id="paint11_radial_20_2" cx="0" cy="0" r="1" gradientUnits="userSpaceOnUse" gradientTransform="translate(75.0311 90.12) scale(165.349 165.349)">
<stop stop-color="#E39A65"/>
<stop offset="0.1528" stop-color="#A92FFB"/>
<stop offset="0.4087" stop-color="#3919BB"/>
<stop offset="0.9311" stop-color="#3919BB"/>
</radialGradient>
<linearGradient id="paint12_linear_20_2" x1="77.9575" y1="69.6366" x2="137.267" y2="69.6366" gradientUnits="userSpaceOnUse">
<stop stop-color="#E39A65"/>
<stop offset="0.252" stop-color="#A92FFB"/>
<stop offset="0.5556" stop-color="#3919BB"/>
</linearGradient>
<linearGradient id="paint13_linear_20_2" x1="83.5187" y1="66.623" x2="131.703" y2="66.623" gradientUnits="userSpaceOnUse">
<stop stop-color="#4F1FEC"/>
<stop offset="1" stop-color="#A92FFB"/>
</linearGradient>
<linearGradient id="paint14_linear_20_2" x1="82.3755" y1="66.623" x2="130.56" y2="66.623" gradientUnits="userSpaceOnUse">
<stop stop-color="#4F1FEC"/>
<stop offset="1" stop-color="#A92FFB"/>
</linearGradient>
<linearGradient id="paint15_linear_20_2" x1="83.5227" y1="60.272" x2="144.275" y2="60.272" gradientUnits="userSpaceOnUse">
<stop stop-color="#131060"/>
<stop offset="0.1857" stop-color="#141062"/>
<stop offset="0.2823" stop-color="#19106A"/>
<stop offset="0.3584" stop-color="#221078"/>
<stop offset="0.4238" stop-color="#2E0F8B"/>
<stop offset="0.4823" stop-color="#3E0FA3"/>
<stop offset="0.5359" stop-color="#510EC2"/>
<stop offset="0.5847" stop-color="#680DE5"/>
<stop offset="0.6071" stop-color="#740DF8"/>
<stop offset="0.6179" stop-color="#7A14F0"/>
<stop offset="0.6826" stop-color="#9B3CC3"/>
<stop offset="0.7477" stop-color="#B75D9D"/>
<stop offset="0.8123" stop-color="#CC7680"/>
<stop offset="0.8762" stop-color="#DC886C"/>
<stop offset="0.9391" stop-color="#E5935F"/>
<stop offset="1" stop-color="#E8975B"/>
</linearGradient>
<radialGradient id="paint16_radial_20_2" cx="0" cy="0" r="1" gradientUnits="userSpaceOnUse" gradientTransform="translate(70.5548 52.8565) scale(108.165 108.165)">
<stop stop-color="#E39A65"/>
<stop offset="0.252" stop-color="#A92FFB"/>
<stop offset="0.7357" stop-color="#3919BB"/>
</radialGradient>
<linearGradient id="paint17_linear_20_2" x1="103.798" y1="79.8791" x2="112.202" y2="79.8791" gradientUnits="userSpaceOnUse">
<stop stop-color="#131060"/>
<stop offset="0.1857" stop-color="#141062"/>
<stop offset="0.2823" stop-color="#19106A"/>
<stop offset="0.3584" stop-color="#221078"/>
<stop offset="0.4238" stop-color="#2E0F8B"/>
<stop offset="0.4823" stop-color="#3E0FA3"/>
<stop offset="0.5359" stop-color="#510EC2"/>
<stop offset="0.5847" stop-color="#680DE5"/>
<stop offset="0.6071" stop-color="#740DF8"/>
<stop offset="0.6179" stop-color="#7A14F0"/>
<stop offset="0.6826" stop-color="#9B3CC3"/>
<stop offset="0.7477" stop-color="#B75D9D"/>
<stop offset="0.8123" stop-color="#CC7680"/>
<stop offset="0.8762" stop-color="#DC886C"/>
<stop offset="0.9391" stop-color="#E5935F"/>
<stop offset="1" stop-color="#E8975B"/>
</linearGradient>
</defs>
</svg>
